<svg xmlns="http://www.w3.org/2000/svg" width="60" height="40" viewBox="0 0 60 40">
  <rect width="60" height="40" fill="#1F3F95"/>
  <polygon points="0,0 6,0 60,33 60,40 54,40 0,7" fill="#FFFFFF"/>
  <polygon points="60,0 54,0 0,33 0,40 6,40 60,7" fill="#FFFFFF"/>
  <polygon points="0,0 3.5,0 60,35.5 60,40 56.5,40 0,4.5" fill="#C8102E"/>
  <polygon points="60,0 56.5,0 0,35.5 0,40 3.5,40 60,4.5" fill="#C8102E"/>
  <rect x="24" width="12" height="40" fill="#FFFFFF"/>
  <rect y="14" width="60" height="12" fill="#FFFFFF"/>
  <rect x="26.5" width="7" height="40" fill="#C8102E"/>
  <rect y="16.5" width="60" height="7" fill="#C8102E"/>
</svg>
